<svg width="16" height="16" viewBox="0 0 16 16" fill="none" xmlns="http://www.w3.org/2000/svg">
    <path fill-rule="evenodd" clip-rule="evenodd"
        d="M13.9333 1.73044V1.13044H12.7333V1.73044V3.68969C11.5632 2.39271 9.86831 1.57633 7.98249 1.57633C4.44974 1.57633 1.58589 4.44019 1.58589 7.97293C1.58589 11.5057 4.44974 14.3695 7.98249 14.3695C10.6427 14.3695 12.9223 12.7458 13.8868 10.4377L14.1182 9.88406L13.0109 9.42137L12.7796 9.97498C11.9951 11.8522 10.1419 13.1695 7.98249 13.1695C5.11249 13.1695 2.78589 10.8429 2.78589 7.97293C2.78589 5.10293 5.11249 2.77633 7.98249 2.77633C9.61032 2.77633 11.0637 3.52445 12.0172 4.69758H9.76606H9.16606V5.89758H9.76606H13.3333C13.6647 5.89758 13.9333 5.62895 13.9333 5.29758V1.73044Z"
        fill="#9097A6" />
</svg>