<svg xmlns="http://www.w3.org/2000/svg" width="53" height="53" viewBox="0 0 53 53" fill="none">
  <path fill-rule="evenodd" clip-rule="evenodd" d="M20.9598 11.6185C20.7859 11.6185 20.6153 11.6669 20.4673 11.7583C20.3193 11.8497 20.1996 11.9805 20.1217 12.136L18.5054 15.3686H10.4259C9.67994 15.3686 8.96456 15.6649 8.4371 16.1924C7.90964 16.7198 7.61332 17.4352 7.61332 18.1811V36.9315C7.61332 37.6775 7.90964 38.3928 8.4371 38.9203C8.96456 39.4478 9.67994 39.7441 10.4259 39.7441H40.4265C41.1724 39.7441 41.8878 39.4478 42.4153 38.9203C42.9427 38.3928 43.239 37.6775 43.239 36.9315V18.1811C43.239 17.4352 42.9427 16.7198 42.4153 16.1924C41.8878 15.6649 41.1724 15.3686 40.4265 15.3686H32.347L30.7307 12.136C30.6527 11.9805 30.5331 11.8497 30.385 11.7583C30.237 11.6669 30.0665 11.6185 29.8925 11.6185H20.9598ZM18.4435 11.2998C18.677 10.8322 19.0361 10.4389 19.4805 10.164C19.925 9.88911 20.4372 9.74349 20.9598 9.74347H29.8925C30.4151 9.74349 30.9274 9.88911 31.3719 10.164C31.8163 10.4389 32.1754 10.8322 32.4088 11.2998L33.5057 13.4935H40.4265C41.0421 13.4935 41.6516 13.6148 42.2204 13.8504C42.7891 14.0859 43.3058 14.4312 43.7411 14.8665C44.1764 15.3018 44.5217 15.8186 44.7573 16.3873C44.9928 16.956 45.1141 17.5656 45.1141 18.1811V36.9315C45.1141 37.5471 44.9928 38.1567 44.7573 38.7254C44.5217 39.2941 44.1764 39.8109 43.7411 40.2462C43.3058 40.6814 42.7891 41.0267 42.2204 41.2623C41.6516 41.4979 41.0421 41.6191 40.4265 41.6191H10.4259C9.18265 41.6191 7.99034 41.1252 7.11125 40.2462C6.23215 39.3671 5.73828 38.1748 5.73828 36.9315V18.1811C5.73828 16.9379 6.23215 15.7456 7.11125 14.8665C7.99034 13.9874 9.18265 13.4935 10.4259 13.4935H17.3466L18.4435 11.2998Z"/>
  <path fill-rule="evenodd" clip-rule="evenodd" d="M25.4264 34.119C26.2883 34.119 27.1416 33.9493 27.9379 33.6195C28.7341 33.2897 29.4575 32.8063 30.0669 32.1969C30.6763 31.5875 31.1597 30.864 31.4895 30.0678C31.8193 29.2716 31.9891 28.4182 31.9891 27.5564C31.9891 26.6946 31.8193 25.8412 31.4895 25.045C31.1597 24.2488 30.6763 23.5253 30.0669 22.9159C29.4575 22.3065 28.7341 21.8231 27.9379 21.4933C27.1416 21.1635 26.2883 20.9938 25.4264 20.9938C23.6859 20.9938 22.0167 21.6852 20.786 22.9159C19.5552 24.1466 18.8638 25.8159 18.8638 27.5564C18.8638 29.2969 19.5552 30.9661 20.786 32.1969C22.0167 33.4276 23.6859 34.119 25.4264 34.119ZM25.4264 35.9941C27.6643 35.9941 29.8104 35.1051 31.3928 33.5227C32.9751 31.9404 33.8641 29.7942 33.8641 27.5564C33.8641 25.3186 32.9751 23.1724 31.3928 21.5901C29.8104 20.0077 27.6643 19.1187 25.4264 19.1187C23.1886 19.1187 21.0425 20.0077 19.4601 21.5901C17.8777 23.1724 16.9888 25.3186 16.9888 27.5564C16.9888 29.7942 17.8777 31.9404 19.4601 33.5227C21.0425 35.1051 23.1886 35.9941 25.4264 35.9941Z"/>
</svg>