<svg xmlns="http://www.w3.org/2000/svg" width="54" height="53" viewBox="0 0 54 53" fill="none">
  <path d="M40.237 13.4936V20.9937H42.112V11.6185H32.7368V13.4936H40.237Z"/>
  <path d="M32.463 22.595L41.8382 13.2198L40.5107 11.8923L31.1355 21.2675L32.463 22.595ZM13.9864 13.4936V20.9937H12.1113V11.6185H21.4865V13.4936H13.9864Z"/>
  <path d="M21.7609 22.5956L12.3857 13.2204L13.7133 11.8929L23.0885 21.2681L21.7609 22.5956ZM40.2376 39.7447V32.2446H42.1126V41.6197H32.7374V39.7447H40.2376Z"/>
  <path d="M32.4628 30.6426L41.838 40.0178L40.5104 41.3454L31.1353 31.9702L32.4628 30.6426Z"/>
  <path d="M13.9864 39.7441V32.244H12.1113V41.6191H21.4865V39.7441H13.9864Z"/>
  <path d="M21.7609 30.6426L12.3857 40.0178L13.7133 41.3454L23.0885 31.9702L21.7609 30.6426Z"/>
</svg>